# This file uses centimeters as units for non-parametric coordinates.

mtllib RoundSand.mtl
g default
v 1.231531 -4.395956 -0.657139
v 0.782725 -4.395956 -1.163736
v 0.149900 -4.395956 -1.403735
v -0.521972 -4.395956 -1.322156
v -1.078972 -4.395956 -0.937686
v -1.393500 -4.395956 -0.338403
v -1.393501 -4.395956 0.338403
v -1.078973 -4.395956 0.937686
v -0.521972 -4.395956 1.322155
v 0.149900 -4.395956 1.403735
v 0.782724 -4.395956 1.163737
v 1.231530 -4.395956 0.657140
v 1.393501 -4.395956 0.000000
v 1.463476 1.881675 0.136435
v 0.930143 1.881675 -0.465574
v 0.178132 1.881675 -0.750775
v -0.620279 1.881675 -0.653830
v -1.282185 1.881675 -0.196950
v -1.655951 1.881675 0.515201
v -1.655951 1.881675 1.326905
v -1.282186 1.881675 2.052211
v -0.620280 1.881675 2.517531
v 0.178132 1.881675 2.616266
v 0.930142 1.881675 2.325799
v 1.463475 1.881675 1.712668
v 1.655951 1.881675 0.917339
v -0.003166 4.153122 1.855061
v -1.282186 1.732219 1.943741
v -1.655951 1.732219 1.217569
v -1.655951 1.732219 0.405376
v -1.282185 1.732219 -0.306774
v -0.620279 1.732219 -0.763655
v 0.178132 1.732219 -0.860599
v 0.930143 1.732219 -0.575399
v 1.463476 1.732219 0.026610
v 1.655951 1.732219 0.807514
v 1.463475 1.732219 1.603793
v 0.930142 1.732219 2.217655
v 0.178132 1.732219 2.508469
v -0.620280 1.732219 2.409616
v -1.078973 1.494756 1.590978
v -1.393501 1.494756 0.978740
v -1.393500 1.494756 0.294617
v -1.078972 1.494756 -0.304665
v -0.521972 1.494756 -0.689135
v 0.149900 1.494756 -0.770714
v 0.782725 1.494756 -0.530715
v 1.231531 1.494756 -0.024118
v 1.393501 1.494756 0.633021
v 1.231530 1.494756 1.304367
v 0.782724 1.494756 1.821917
v 0.149900 1.494756 2.067103
v -0.521972 1.494756 1.983760
v 0.956370 -3.060666 1.294061
v 0.183154 -3.060666 1.590359
v -0.637770 -3.060666 1.489642
v -1.318340 -3.060666 1.014982
v -1.702645 -3.060666 0.275118
v -1.702644 -3.060666 -0.556146
v -1.318339 -3.060666 -1.288377
v -0.637770 -3.060666 -1.758141
v 0.183155 -3.060666 -1.857819
v 0.956371 -3.060666 -1.564577
v 1.504742 -3.060666 -0.945592
v 1.702645 -3.060666 -0.142669
v 1.504742 -3.060666 0.668625
v 0.956370 -2.743591 1.263541
v 0.183154 -2.743591 1.560466
v -0.637770 -2.743591 1.459536
v -1.318340 -2.743591 0.983870
v -1.702645 -2.743591 0.242437
v -1.702644 -2.743591 -0.589712
v -1.318339 -2.743591 -1.321944
v -0.637770 -2.743591 -1.791707
v 0.183155 -2.743591 -1.891385
v 0.956371 -2.743591 -1.598143
v 1.504742 -2.743591 -0.979159
v 1.702645 -2.743591 -0.176235
v 1.504742 -2.743591 0.636778
v 0.739965 -2.557618 0.921315
v 0.141711 -2.557618 1.151342
v -0.493457 -2.557618 1.073151
v -1.020030 -2.557618 0.704655
v -1.317376 -2.557618 0.130271
v -1.317375 -2.557618 -0.513989
v -1.020030 -2.557618 -1.080534
v -0.493457 -2.557618 -1.444001
v 0.141711 -2.557618 -1.521124
v 0.739966 -2.557618 -1.294235
v 1.164254 -2.557618 -0.815313
v 1.317376 -2.557618 -0.194072
v 1.164253 -2.557618 0.435765
v 0.884215 -3.208293 1.200024
v 0.169336 -3.208293 1.473693
v -0.589653 -3.208293 1.380668
v -1.218877 -3.208293 0.942259
v -1.574187 -3.208293 0.258899
v -1.574187 -3.208293 -0.509263
v -1.218876 -3.208293 -1.186250
v -0.589652 -3.208293 -1.620572
v 0.169336 -3.208293 -1.712729
v 0.884216 -3.208293 -1.441611
v 1.391215 -3.208293 -0.869327
v 1.574187 -3.208293 -0.126980
v 1.391215 -3.208293 0.622353
vt 0.375000 0.312500
vt 0.394231 0.312500
vt 0.413462 0.312500
vt 0.432692 0.312500
vt 0.451923 0.312500
vt 0.471154 0.312500
vt 0.490385 0.312500
vt 0.509615 0.312500
vt 0.528846 0.312500
vt 0.548077 0.312500
vt 0.567308 0.312500
vt 0.586539 0.312500
vt 0.605769 0.312500
vt 0.625000 0.312500
vt 0.375000 0.688440
vt 0.394231 0.688440
vt 0.413462 0.688440
vt 0.432692 0.688440
vt 0.451923 0.688440
vt 0.471154 0.688440
vt 0.490385 0.688440
vt 0.509615 0.688440
vt 0.528846 0.688440
vt 0.548077 0.688440
vt 0.567308 0.688440
vt 0.586539 0.688440
vt 0.605769 0.688440
vt 0.625000 0.688440
vt 0.638353 0.771137
vt 0.588760 0.715159
vt 0.518834 0.688639
vt 0.444593 0.697654
vt 0.383045 0.740137
vt 0.348290 0.806357
vt 0.348290 0.881143
vt 0.383045 0.947363
vt 0.444593 0.989846
vt 0.518834 0.998861
vt 0.588760 0.972341
vt 0.638353 0.916363
vt 0.656250 0.843750
vt 0.563822 0.731208
vt 0.509615 0.680590
vt 0.490385 0.680590
vt 0.471154 0.680590
vt 0.451923 0.680590
vt 0.432692 0.680590
vt 0.413462 0.680590
vt 0.394231 0.680590
vt 0.625000 0.680590
vt 0.375000 0.680590
vt 0.605769 0.680590
vt 0.586539 0.680590
vt 0.567308 0.680590
vt 0.548077 0.680590
vt 0.528846 0.680590
vt 0.509615 0.665028
vt 0.490385 0.665028
vt 0.471154 0.665028
vt 0.451923 0.665028
vt 0.432692 0.665028
vt 0.413462 0.665028
vt 0.394231 0.665028
vt 0.625000 0.665028
vt 0.375000 0.665028
vt 0.605769 0.665028
vt 0.586539 0.665028
vt 0.567308 0.665028
vt 0.548077 0.665028
vt 0.528846 0.665028
vt 0.567308 0.393069
vt 0.548077 0.393069
vt 0.528846 0.393069
vt 0.509615 0.393069
vt 0.490385 0.393069
vt 0.471154 0.393069
vt 0.451923 0.393069
vt 0.432692 0.393069
vt 0.413462 0.393069
vt 0.394231 0.393069
vt 0.625000 0.393069
vt 0.375000 0.393069
vt 0.605769 0.393069
vt 0.586539 0.393069
vt 0.567308 0.408372
vt 0.548077 0.408372
vt 0.528846 0.408372
vt 0.509615 0.408372
vt 0.490385 0.408372
vt 0.471154 0.408372
vt 0.451923 0.408372
vt 0.432692 0.408372
vt 0.413462 0.408372
vt 0.394231 0.408372
vt 0.625000 0.408372
vt 0.375000 0.408372
vt 0.605769 0.408372
vt 0.586539 0.408372
vt 0.567308 0.418704
vt 0.548077 0.418704
vt 0.528846 0.418704
vt 0.509615 0.418704
vt 0.490385 0.418704
vt 0.471154 0.418704
vt 0.451923 0.418704
vt 0.432692 0.418704
vt 0.413462 0.418704
vt 0.394231 0.418704
vt 0.625000 0.418704
vt 0.375000 0.418704
vt 0.605769 0.418704
vt 0.586539 0.418704
vt 0.567308 0.384738
vt 0.548077 0.384738
vt 0.528846 0.384738
vt 0.509615 0.384738
vt 0.490385 0.384738
vt 0.471154 0.384738
vt 0.451923 0.384738
vt 0.432692 0.384738
vt 0.413462 0.384738
vt 0.394231 0.384738
vt 0.625000 0.384738
vt 0.375000 0.384738
vt 0.605769 0.384738
vt 0.586539 0.384738
vn 0.874364 -0.196809 -0.443569
vn 0.559454 -0.233856 -0.795187
vn 0.532136 -0.321697 -0.783162
vn 0.842954 -0.287576 -0.454675
vn 0.118718 -0.251827 -0.960463
vn 0.111882 -0.338268 -0.934375
vn -0.348231 -0.247054 -0.904267
vn -0.330277 -0.334646 -0.882570
vn -0.737339 -0.220493 -0.638525
vn -0.705311 -0.311357 -0.636862
vn -0.958994 -0.177667 -0.220830
vn -0.931414 -0.272330 -0.241461
vn -0.959299 -0.129787 0.250800
vn -0.948655 -0.226487 0.220812
vn -0.739668 -0.089839 0.666949
vn -0.742927 -0.186614 0.642833
vn -0.350338 -0.065507 0.934330
vn -0.355519 -0.161470 0.920616
vn 0.119541 -0.059674 0.991034
vn 0.120982 -0.154854 0.980502
vn 0.561914 -0.072992 0.823969
vn 0.567392 -0.167765 0.806177
vn 0.875453 -0.104325 0.471909
vn 0.873577 -0.198861 0.444205
vn 0.988698 -0.149119 0.015475
vn 0.970038 -0.242643 -0.012308
vn 0.663161 0.648987 -0.372872
vn 0.388799 0.711480 -0.585347
vn 0.002968 0.991494 0.130117
vn 0.078503 0.736937 -0.671387
vn -0.236212 0.730089 -0.641229
vn -0.531190 0.689611 -0.492212
vn -0.763765 0.609153 -0.213532
vn -0.854179 0.489161 0.176352
vn -0.723999 0.353084 0.592585
vn -0.363662 0.246410 0.898350
vn 0.123512 0.218540 0.967980
vn 0.568799 0.283501 0.772072
vn 0.824159 0.409686 0.391050
vn 0.838737 0.543749 -0.029262
vn -0.756121 -0.628108 0.183742
vn -0.509446 -0.739180 0.440542
vn -0.875970 -0.434838 -0.208790
vn -0.743650 -0.185455 -0.642332
vn -0.363908 0.007166 -0.931407
vn 0.122121 0.054287 -0.991030
vn 0.575842 -0.062751 -0.815149
vn 0.850150 -0.295610 -0.435730
vn 0.846561 -0.532284 0.002861
vn 0.646349 -0.686878 0.332314
vn 0.368639 -0.768699 0.522693
vn 0.073644 -0.799257 0.596460
vn -0.221981 -0.790539 0.570765
vn -0.954105 -0.154969 0.256259
vn -0.717603 -0.252130 0.649212
vn -0.975678 -0.039914 -0.215545
vn -0.758074 0.065023 -0.648919
vn -0.358629 0.131360 -0.924191
vn 0.121910 0.145600 -0.981804
vn 0.575237 0.105587 -0.811144
vn 0.894702 0.018406 -0.446284
vn 0.995170 -0.095210 0.023928
vn 0.859870 -0.204633 0.467706
vn 0.539184 -0.286029 0.792129
vn 0.113048 -0.323829 0.939338
vn -0.333754 -0.311923 0.889557
vn 0.118865 -0.162561 0.979513
vn 0.559855 -0.173970 0.810122
vn 0.466648 0.585184 0.663174
vn 0.098068 0.595538 0.797318
vn -0.350913 -0.168574 0.921110
vn -0.290312 0.595034 0.749435
vn -0.734875 -0.191126 0.650714
vn -0.614117 0.583749 0.531128
vn -0.944311 -0.227246 0.237981
vn -0.804194 0.563331 0.189555
vn -0.936774 -0.269841 -0.222801
vn -0.817626 0.536799 -0.208171
vn -0.716040 -0.307430 -0.626717
vn -0.640039 0.510731 -0.574024
vn -0.337478 -0.330169 -0.881531
vn -0.306773 0.491943 -0.814789
vn 0.114068 -0.333832 -0.935705
vn 0.103801 0.485396 -0.868111
vn 0.541712 -0.317704 -0.778211
vn 0.490190 0.493056 -0.718756
vn 0.851666 -0.284770 -0.439966
vn 0.756916 0.512791 -0.405123
vn 0.970266 -0.241932 0.007285
vn 0.841874 0.539626 -0.007271
vn 0.866217 -0.201861 0.457077
vn 0.734602 0.565493 0.374938
vn 0.587313 -0.059252 0.807188
vn 0.125725 -0.093714 0.987629
vn -0.368405 -0.081035 0.926127
vn -0.767973 -0.024992 0.639995
vn -0.976195 0.058156 0.208952
vn -0.953371 0.147994 -0.263023
vn -0.715107 0.222430 -0.662681
vn -0.332036 0.266711 -0.904775
vn 0.112564 0.275274 -0.954753
vn 0.536890 0.247297 -0.806594
vn 0.857769 0.185960 -0.479220
vn 0.994486 0.100826 -0.028851
vn 0.900105 0.012015 0.435506
s 1
g RoundSand
usemtl initialShadingGroup
f 1/1/1 2/2/2 102/122/3 103/124/4
f 2/2/2 3/3/5 101/121/6 102/122/3
f 3/3/5 4/4/7 100/120/8 101/121/6
f 4/4/7 5/5/9 99/119/10 100/120/8
f 5/5/9 6/6/11 98/118/12 99/119/10
f 6/6/11 7/7/13 97/117/14 98/118/12
f 7/7/13 8/8/15 96/116/16 97/117/14
f 8/8/15 9/9/17 95/115/18 96/116/16
f 9/9/17 10/10/19 94/114/20 95/115/18
f 10/10/19 11/11/21 93/113/22 94/114/20
f 11/11/21 12/12/23 105/126/24 93/113/22
f 12/12/23 13/13/25 104/125/26 105/126/24
f 13/13/25 1/14/1 103/123/4 104/125/26
f 14/40/27 15/39/28 27/42/29
f 15/39/28 16/38/30 27/42/29
f 16/38/30 17/37/31 27/42/29
f 17/37/31 18/36/32 27/42/29
f 18/36/32 19/35/33 27/42/29
f 19/35/33 20/34/34 27/42/29
f 20/34/34 21/33/35 27/42/29
f 21/33/35 22/32/36 27/42/29
f 22/32/36 23/31/37 27/42/29
f 23/31/37 24/30/38 27/42/29
f 24/30/38 25/29/39 27/42/29
f 25/29/39 26/41/40 27/42/29
f 26/41/40 14/40/27 27/42/29
f 29/44/41 28/43/42 21/22/35 20/21/34
f 30/45/43 29/44/41 20/21/34 19/20/33
f 31/46/44 30/45/43 19/20/33 18/19/32
f 32/47/45 31/46/44 18/19/32 17/18/31
f 33/48/46 32/47/45 17/18/31 16/17/30
f 34/49/47 33/48/46 16/17/30 15/16/28
f 35/51/48 34/49/47 15/16/28 14/15/27
f 36/52/49 35/50/48 14/28/27 26/27/40
f 37/53/50 36/52/49 26/27/40 25/26/39
f 38/54/51 37/53/50 25/26/39 24/25/38
f 39/55/52 38/54/51 24/25/38 23/24/37
f 40/56/53 39/55/52 23/24/37 22/23/36
f 28/43/42 40/56/53 22/23/36 21/22/35
f 42/58/54 41/57/55 28/43/42 29/44/41
f 43/59/56 42/58/54 29/44/41 30/45/43
f 44/60/57 43/59/56 30/45/43 31/46/44
f 45/61/58 44/60/57 31/46/44 32/47/45
f 46/62/59 45/61/58 32/47/45 33/48/46
f 47/63/60 46/62/59 33/48/46 34/49/47
f 48/65/61 47/63/60 34/49/47 35/51/48
f 49/66/62 48/64/61 35/50/48 36/52/49
f 50/67/63 49/66/62 36/52/49 37/53/50
f 51/68/64 50/67/63 37/53/50 38/54/51
f 52/69/65 51/68/64 38/54/51 39/55/52
f 53/70/66 52/69/65 39/55/52 40/56/53
f 41/57/55 53/70/66 40/56/53 28/43/42
f 55/72/67 54/71/68 67/85/69 68/86/70
f 56/73/71 55/72/67 68/86/70 69/87/72
f 57/74/73 56/73/71 69/87/72 70/88/74
f 58/75/75 57/74/73 70/88/74 71/89/76
f 59/76/77 58/75/75 71/89/76 72/90/78
f 60/77/79 59/76/77 72/90/78 73/91/80
f 61/78/81 60/77/79 73/91/80 74/92/82
f 62/79/83 61/78/81 74/92/82 75/93/84
f 63/80/85 62/79/83 75/93/84 76/94/86
f 64/82/87 63/80/85 76/94/86 77/96/88
f 65/83/89 64/81/87 77/95/88 78/97/90
f 66/84/91 65/83/89 78/97/90 79/98/92
f 54/71/68 66/84/91 79/98/92 67/85/69
f 68/86/70 67/85/69 80/99/93 81/100/94
f 69/87/72 68/86/70 81/100/94 82/101/95
f 70/88/74 69/87/72 82/101/95 83/102/96
f 71/89/76 70/88/74 83/102/96 84/103/97
f 72/90/78 71/89/76 84/103/97 85/104/98
f 73/91/80 72/90/78 85/104/98 86/105/99
f 74/92/82 73/91/80 86/105/99 87/106/100
f 75/93/84 74/92/82 87/106/100 88/107/101
f 76/94/86 75/93/84 88/107/101 89/108/102
f 77/96/88 76/94/86 89/108/102 90/110/103
f 78/97/90 77/95/88 90/109/103 91/111/104
f 79/98/92 78/97/90 91/111/104 92/112/105
f 67/85/69 79/98/92 92/112/105 80/99/93
f 81/100/94 80/99/93 51/68/64 52/69/65
f 82/101/95 81/100/94 52/69/65 53/70/66
f 83/102/96 82/101/95 53/70/66 41/57/55
f 84/103/97 83/102/96 41/57/55 42/58/54
f 85/104/98 84/103/97 42/58/54 43/59/56
f 86/105/99 85/104/98 43/59/56 44/60/57
f 87/106/100 86/105/99 44/60/57 45/61/58
f 88/107/101 87/106/100 45/61/58 46/62/59
f 89/108/102 88/107/101 46/62/59 47/63/60
f 90/110/103 89/108/102 47/63/60 48/65/61
f 91/111/104 90/109/103 48/64/61 49/66/62
f 92/112/105 91/111/104 49/66/62 50/67/63
f 80/99/93 92/112/105 50/67/63 51/68/64
f 94/114/20 93/113/22 54/71/68 55/72/67
f 95/115/18 94/114/20 55/72/67 56/73/71
f 96/116/16 95/115/18 56/73/71 57/74/73
f 97/117/14 96/116/16 57/74/73 58/75/75
f 98/118/12 97/117/14 58/75/75 59/76/77
f 99/119/10 98/118/12 59/76/77 60/77/79
f 100/120/8 99/119/10 60/77/79 61/78/81
f 101/121/6 100/120/8 61/78/81 62/79/83
f 102/122/3 101/121/6 62/79/83 63/80/85
f 103/124/4 102/122/3 63/80/85 64/82/87
f 104/125/26 103/123/4 64/81/87 65/83/89
f 105/126/24 104/125/26 65/83/89 66/84/91
f 93/113/22 105/126/24 66/84/91 54/71/68
