# This file uses centimeters as units for non-parametric coordinates.

mtllib Starfish.mtl
g default
v -0.829098 -0.459775 -1.041978
v 0.000000 -0.488296 -2.482529
v 0.000000 -0.459775 1.700207
v -1.650955 -0.488296 2.482529
v -1.405626 -0.459775 0.808655
v -2.293745 -0.488296 -0.721070
v 0.000000 -0.114957 -2.312288
v 0.001009 0.488296 0.159405
v 0.003170 0.035120 1.411184
v -1.142723 0.035120 0.736483
v -1.545923 0.003732 2.367527
v -2.155241 0.003732 -0.651613
v -0.678793 0.028815 -0.792999
v 0.829098 -0.459775 -1.041978
v 1.650957 -0.488296 2.482529
v 1.405626 -0.459775 0.808655
v 2.293745 -0.488296 -0.721070
v 1.145527 0.035120 0.732129
v 1.553055 0.003732 2.360518
v 2.154419 0.003732 -0.654401
v 0.678427 0.028815 -0.794238
v -1.220308 0.283676 -0.144386
v -0.740805 0.271889 1.395139
v 0.780743 0.283301 1.355886
v -0.321741 -0.474036 -1.893833
v -1.011040 -0.474036 2.124628
v -1.548626 -0.474036 1.858546
v -1.923529 -0.474036 -0.111168
v -1.707684 -0.474036 -0.841198
v 0.000000 -0.300480 -2.482529
v 0.000000 0.065978 -1.801566
v 0.000000 -0.217796 1.700207
v -1.405626 -0.217796 0.808655
v -1.650955 -0.217796 2.482529
v -1.479312 -0.009268 1.826726
v -0.986525 -0.009268 2.070634
v -2.293744 -0.217796 -0.721070
v -0.829098 -0.231577 -1.041978
v -1.653688 -0.009268 -0.779703
v -1.851547 -0.009268 -0.110509
v -0.294930 -0.090439 -1.816510
v 0.321743 -0.474036 -1.893833
v 1.011040 -0.474036 2.124628
v 1.548628 -0.474036 1.858546
v 1.923529 -0.474036 -0.111168
v 1.707684 -0.474036 -0.841198
v 1.405626 -0.217796 0.808655
v 1.650955 -0.217796 2.482529
v 1.485020 -0.009268 1.821118
v 0.992231 -0.009268 2.065026
v 2.293745 -0.217796 -0.721070
v 0.829098 -0.231577 -1.041978
v 1.653030 -0.009268 -0.781934
v 1.850887 -0.009268 -0.112739
v 0.294931 -0.090439 -1.816510
v -1.739731 0.127317 -0.443243
v 1.736433 0.127317 -0.454395
v -1.230825 0.127317 2.022521
v 1.259354 0.127317 1.994483
v -0.321741 -0.272919 -1.893833
v -1.011040 -0.217796 2.124628
v -1.548626 -0.217796 1.858546
v -1.923529 -0.217796 -0.111168
v -1.707684 -0.217796 -0.841198
v -0.912983 0.103838 1.908651
v 1.548628 -0.217796 1.858546
v 1.011040 -0.217796 2.124628
v 1.707684 -0.217796 -0.841198
v 1.923529 -0.217796 -0.111168
v 0.321743 -0.272919 -1.893833
v -1.271374 0.103838 1.731264
vt 0.500000 1.000000
vt 0.500000 1.000000
vt 0.435199 0.881432
vt 0.435199 0.881432
vt 0.333013 0.709862
vt 0.333013 0.709862
vt 0.363286 0.659716
vt 0.440599 0.865859
vt 0.500000 0.965712
vt 0.296369 0.072084
vt 0.500000 0.157566
vt 0.500000 0.157566
vt 0.296369 0.072084
vt 0.500638 0.215777
vt 0.301307 0.082959
vt 0.188639 0.023162
vt 0.167485 0.000000
vt 0.167485 0.000000
vt 0.188095 0.125675
vt 0.188095 0.125675
vt 0.202055 0.132084
vt 0.269847 0.351667
vt 0.216896 0.337131
vt 0.216896 0.337131
vt 0.112587 0.522390
vt 0.112587 0.522390
vt 0.127084 0.522257
vt 0.065918 0.631240
vt 0.038023 0.645229
vt 0.038023 0.645229
vt 0.156060 0.669424
vt 0.156060 0.669424
vt 0.166935 0.657038
vt 0.350796 0.219009
vt 0.252102 0.092649
vt 0.316118 0.115583
vt 0.149605 0.589272
vt 0.254221 0.529080
vt 0.500203 0.467895
vt 0.500000 0.862849
vt 0.753643 0.098296
vt 0.812797 0.024574
vt 0.799094 0.133213
vt 0.730718 0.352544
vt 0.657247 0.226914
vt 0.636640 0.659966
vt 0.849731 0.591519
vt 0.933916 0.631801
vt 0.832933 0.657487
vt 0.559401 0.865859
vt 0.783104 0.337131
vt 0.811905 0.125675
vt 0.832515 0.000000
vt 0.832515 0.000000
vt 0.811905 0.125675
vt 0.783104 0.337131
vt 0.699843 0.084088
vt 0.703631 0.072084
vt 0.703631 0.072084
vt 0.666986 0.709862
vt 0.843940 0.669424
vt 0.961977 0.645229
vt 0.961977 0.645229
vt 0.843940 0.669424
vt 0.666986 0.709862
vt 0.872783 0.522707
vt 0.887413 0.522390
vt 0.887413 0.522390
vt 0.564801 0.881432
vt 0.564801 0.881432
vt 0.243936 0.151311
vn 0.000000 0.259108 -0.965848
vn 0.000000 0.000000 -1.000000
vn -0.866368 0.000000 -0.499407
vn -0.837689 0.263674 -0.478281
vn -0.583902 0.000000 -0.811824
vn -0.534187 0.396122 -0.746814
vn -0.279557 0.889491 -0.361461
vn -0.594848 0.724370 -0.348487
vn -0.000099 0.812074 -0.583554
vn 0.430093 0.000000 0.902785
vn 0.000000 0.000000 1.000000
vn 0.001839 0.353228 0.935536
vn 0.440047 0.201007 0.875188
vn 0.000468 0.871375 0.490618
vn 0.399873 0.531280 0.746889
vn -0.334229 0.665546 0.667337
vn -0.455568 0.201429 0.867113
vn -0.441786 0.000000 0.897120
vn -0.989356 0.000000 -0.145513
vn -0.958009 0.239368 -0.157863
vn -0.755049 0.640446 -0.140462
vn -0.480264 0.870811 0.105045
vn -0.920878 0.351189 0.169262
vn -0.982363 0.000000 0.186982
vn -0.864509 0.000001 0.502617
vn -0.829795 0.240866 0.503412
vn -0.564401 0.737792 0.370290
vn -0.568428 0.803520 -0.176761
vn -0.934984 0.210775 -0.285270
vn -0.959450 0.000001 -0.281880
vn -0.213446 0.000000 -0.976955
vn -0.182948 0.263540 -0.947142
vn -0.093164 0.771149 -0.629801
vn -0.070146 0.988008 0.137546
vn -0.115610 0.974163 0.194011
vn 0.283964 0.851285 0.441224
vn -0.227308 0.970760 -0.077175
vn -0.202629 0.978569 -0.036661
vn 0.023560 0.999391 -0.025754
vn -0.000292 0.963596 -0.267362
vn 0.113560 0.973058 0.200656
vn 0.301258 0.774895 0.555682
vn 0.688820 0.711549 -0.138655
vn 0.450027 0.886966 0.103767
vn 0.081382 0.985839 0.146626
vn 0.248097 0.895018 -0.370662
vn 0.210455 0.976282 -0.050816
vn 0.569853 0.802931 -0.174843
vn 0.093662 0.764267 -0.638062
vn 0.594938 0.724226 -0.348632
vn 0.923053 0.346327 0.167426
vn 0.961057 0.226156 -0.158817
vn 0.445007 0.203353 0.872133
vn 0.441788 0.000002 0.897120
vn 0.989356 0.000001 -0.145514
vn 0.982364 0.000000 0.186981
vn -0.365220 0.649332 0.667070
vn -0.437922 0.215372 0.872834
vn -0.430093 -0.000001 0.902785
vn 0.534231 0.394291 -0.747751
vn 0.183026 0.259476 -0.948248
vn 0.935858 0.210705 -0.282442
vn 0.959450 -0.000000 -0.281880
vn 0.213446 -0.000000 -0.976955
vn 0.583903 0.000000 -0.811824
vn 0.559076 0.744071 0.365778
vn 0.829267 0.243853 0.502845
vn 0.864509 0.000000 0.502618
vn 0.837720 0.263494 -0.478327
vn 0.866367 0.000000 -0.499407
vn -0.392174 0.915216 -0.092620
s 1
g Star
usemtl initialShadingGroup
f 30/1/1 2/2/2 25/3/3 60/4/4
f 25/3/3 1/5/5 38/6/6 60/4/4
f 38/6/6 13/7/7 41/8/8 60/4/4
f 41/8/8 7/9/9 30/1/1 60/4/4
f 26/10/10 3/11/11 32/12/12 61/13/13
f 32/12/12 9/14/14 36/15/15 61/13/13
f 36/15/15 11/16/16 34/17/17 61/13/13
f 34/17/17 4/18/18 26/10/10 61/13/13
f 27/19/19 4/18/18 34/17/17 62/20/20
f 34/17/17 11/16/16 35/21/21 62/20/20
f 35/21/21 10/22/22 33/23/23 62/20/20
f 33/23/23 5/24/24 27/19/19 62/20/20
f 28/25/25 5/24/24 33/23/23 63/26/26
f 33/23/23 10/22/22 40/27/27 63/26/26
f 40/27/27 12/28/28 37/29/29 63/26/26
f 37/29/29 6/30/30 28/25/25 63/26/26
f 29/31/31 6/30/30 37/29/29 64/32/32
f 37/29/29 12/28/28 39/33/33 64/32/32
f 39/33/33 13/7/7 38/6/6 64/32/32
f 38/6/6 1/5/5 29/31/31 64/32/32
f 9/14/14 23/34/34 58/35/35 65/36/36
f 58/35/35 11/16/16 36/15/15 65/36/36
f 36/15/15 9/14/14 65/36/36
f 56/37/37 12/28/28 40/27/27 10/22/22
f 10/22/22 22/38/38 56/37/37
f 22/38/38 10/22/22 8/39/39
f 8/39/39 23/34/34 9/14/14
f 13/7/7 8/39/39 31/40/40
f 31/40/40 7/9/9 41/8/8 13/7/7
f 59/41/41 19/42/42 49/43/43 18/44/44
f 18/44/44 24/45/45 59/41/41
f 21/46/46 8/39/39 57/47/47
f 57/47/47 20/48/48 53/49/49 21/46/46
f 24/45/45 18/44/44 8/39/39
f 55/50/50 7/9/9 31/40/40 21/46/46
f 31/40/40 8/39/39 21/46/46
f 47/51/51 18/44/44 49/43/43 66/52/52
f 49/43/43 19/42/42 48/53/53 66/52/52
f 48/53/53 15/54/54 44/55/55 66/52/52
f 44/55/55 16/56/56 47/51/51 66/52/52
f 48/53/53 19/42/42 50/57/57 67/58/58
f 50/57/57 9/14/14 32/12/12 67/58/58
f 32/12/12 3/11/11 43/59/59 67/58/58
f 43/59/59 15/54/54 48/53/53 67/58/58
f 52/60/60 21/46/46 53/49/49 68/61/61
f 53/49/49 20/48/48 51/62/62 68/61/61
f 51/62/62 17/63/63 46/64/64 68/61/61
f 46/64/64 14/65/65 52/60/60 68/61/61
f 51/62/62 20/48/48 54/66/66 69/67/67
f 54/66/66 18/44/44 47/51/51 69/67/67
f 47/51/51 16/56/56 45/68/68 69/67/67
f 45/68/68 17/63/63 51/62/62 69/67/67
f 55/50/50 21/46/46 52/60/60 70/69/69
f 52/60/60 14/65/65 42/70/70 70/69/69
f 42/70/70 2/2/2 30/1/1 70/69/69
f 30/1/1 7/9/9 55/50/50 70/69/69
f 13/7/7 22/38/38 8/39/39
f 39/33/33 12/28/28 56/37/37 13/7/7
f 56/37/37 22/38/38 13/7/7
f 57/47/47 8/39/39 18/44/44
f 54/66/66 20/48/48 57/47/47 18/44/44
f 23/34/34 8/39/39 10/22/22
f 58/35/35 23/34/34 10/22/22 71/71/71
f 10/22/22 35/21/21 71/71/71
f 35/21/21 11/16/16 58/35/35 71/71/71
f 8/39/39 9/14/14 24/45/45
f 50/57/57 19/42/42 59/41/41 9/14/14
f 59/41/41 24/45/45 9/14/14
