# This file uses centimeters as units for non-parametric coordinates.

mtllib sandTowerRectangle.mtl
g default
v -1.696252 -4.658430 1.905044
v 1.905044 -4.658430 1.666189
v -0.763656 3.143223 0.883168
v 0.857655 3.143223 0.775635
v -0.857655 3.143223 -0.713069
v 0.777112 3.143223 -0.832142
v -1.905044 -4.658430 -1.640555
v 1.726140 -4.658430 -1.905044
v -0.760565 2.603684 -0.757748
v -0.677207 2.603684 0.657788
v 0.760565 2.603684 0.562428
v 0.689140 2.603684 -0.863341
v 0.857655 3.143223 -0.713069
v 0.760565 2.603684 -0.757748
v 1.905044 -4.658430 -1.640555
v -1.905044 -4.658430 1.666189
v -0.760565 2.603684 0.562428
v -0.857655 3.143223 0.775635
v -1.696252 -4.658430 -1.905044
v -0.763656 3.143223 0.775635
v -0.763656 3.143223 -0.713069
v -0.763656 3.143223 -0.832142
v -0.677207 2.603684 -0.863341
v 1.726140 -4.658430 1.905044
v 0.689140 2.603684 0.657788
v 0.777112 3.143223 0.883168
v 0.777112 3.143223 0.775635
v 0.777112 3.143223 -0.713069
v -0.857655 4.470784 -0.336719
v -0.692620 4.470784 -0.336719
v -0.692620 4.470784 -0.516480
v -0.857655 4.470784 1.009099
v -0.692620 4.470784 1.009099
v -0.692620 4.470784 1.198829
v 0.681475 4.470784 1.198829
v 0.681475 4.470784 1.009099
v 0.681475 4.470784 -0.336719
v 0.681475 4.470784 -0.516480
v 0.857655 4.470784 1.009099
v 0.857655 4.470784 -0.336719
v -0.857655 4.658430 -0.292102
v -0.692620 4.658430 -0.292102
v -0.692620 4.658430 -0.471863
v -0.692620 4.658430 1.243447
v -0.692620 4.658430 1.053716
v -0.857655 4.658430 1.053716
v 0.681475 4.658430 1.243447
v 0.681475 4.658430 1.053716
v 0.857655 4.658430 1.053716
v 0.681475 4.658430 -0.292102
v 0.681475 4.658430 -0.471863
v 0.857655 4.658430 -0.292102
v -0.780728 0.887459 -0.940852
v -0.876827 0.887459 -0.819117
v -0.876827 0.887459 0.702866
v -0.780728 0.887459 0.812803
v 0.794484 0.887459 0.812803
v 0.876827 0.887459 0.702866
v 0.876827 0.887459 -0.819117
v 0.794484 0.887459 -0.940852
v -0.889724 -0.919543 -1.264886
v -0.999240 -0.919543 -1.126155
v -0.999240 -0.919543 0.608309
v -0.889724 -0.919543 0.733593
v 0.905400 -0.919543 0.733593
v 0.999240 -0.919543 0.608309
v 0.999240 -0.919543 -1.126155
v 0.905400 -0.919543 -1.264886
v 0.891304 -4.658430 -1.905044
v 0.891304 -4.658430 1.905044
v 0.467510 -0.919543 0.733593
v 0.410237 0.887459 0.812803
v 0.355842 2.603684 0.657788
v 0.401267 3.143223 0.883168
v 0.346287 4.470784 1.198829
v 0.346287 4.470784 1.009099
v 0.401267 3.143223 0.775635
v 0.401267 3.143223 -0.713069
v 0.346287 4.470784 -0.336719
v 0.346287 4.470784 -0.516480
v 0.401267 3.143223 -0.832142
v 0.355842 2.603684 -0.863341
v 0.410237 0.887459 -0.940852
v 0.467510 -0.919543 -1.264886
v -0.686301 -4.658430 -1.905044
v -0.686301 -4.658430 1.905044
v -0.359981 -0.919543 0.733593
v -0.315881 0.887459 0.812803
v -0.273997 2.603684 0.657788
v -0.308974 3.143223 0.883168
v -0.287123 4.470784 1.198829
v -0.287123 4.470784 1.009099
v -0.308974 3.143223 0.775635
v -0.308974 3.143223 -0.713069
v -0.287123 4.470784 -0.336719
v -0.287123 4.470784 -0.516480
v -0.308974 3.143223 -0.832142
v -0.273997 2.603684 -0.863341
v -0.315881 0.887459 -0.940852
v -0.359981 -0.919543 -1.264886
v 0.399582 -0.784063 -1.133896
v -0.292053 -0.784063 -1.133896
v -0.255194 0.726271 -0.857469
v 0.351713 0.726271 -0.857469
vt 0.381850 0.000000
vt 0.632836 0.000000
vt 0.381850 0.250000
vt 0.630224 0.255224
vt 0.375000 0.491323
vt 0.620489 0.500000
vt 0.375000 0.758677
vt 0.620489 0.750000
vt 0.875000 0.000000
vt 0.875000 0.250000
vt 0.133677 0.000000
vt 0.133677 0.250000
vt 0.133677 0.240149
vt 0.375000 0.509851
vt 0.381850 0.240149
vt 0.632836 0.240149
vt 0.620489 0.509851
vt 0.875000 0.240149
vt 0.625000 0.482646
vt 0.857646 0.250000
vt 0.857646 0.240149
vt 0.857646 0.000000
vt 0.359327 0.000000
vt 0.359327 0.240149
vt 0.359327 0.250000
vt 0.375000 0.265673
vt 0.388700 0.750000
vt 0.388700 0.265673
vt 0.388700 0.482646
vt 0.388700 0.500000
vt 0.388700 0.509851
vt 0.615977 0.000000
vt 0.615977 0.240149
vt 0.615977 0.250000
vt 0.615977 0.265673
vt 0.615977 0.482646
vt 0.388700 0.500000
vt 0.375000 0.491323
vt 0.388700 0.265673
vt 0.388700 0.482646
vt 0.375000 0.265673
vt 0.381850 0.250000
vt 0.615977 0.250000
vt 0.615977 0.265673
vt 0.615977 0.482646
vt 0.620489 0.500000
vt 0.630224 0.255224
vt 0.625000 0.482646
vt 0.375000 0.491323
vt 0.388700 0.482646
vt 0.388700 0.500000
vt 0.381850 0.250000
vt 0.388700 0.265673
vt 0.375000 0.265673
vt 0.615977 0.265673
vt 0.615977 0.250000
vt 0.630224 0.255224
vt 0.620489 0.500000
vt 0.615977 0.482646
vt 0.625000 0.482646
vt 0.388700 0.566604
vt 0.133677 0.183396
vt 0.375000 0.568655
vt 0.359327 0.183396
vt 0.381850 0.183396
vt 0.615977 0.183396
vt 0.632836 0.183396
vt 0.857646 0.183396
vt 0.620489 0.566604
vt 0.875000 0.183396
vt 0.388700 0.626360
vt 0.133677 0.123640
vt 0.375000 0.630569
vt 0.359327 0.123640
vt 0.381850 0.123640
vt 0.615977 0.123640
vt 0.632836 0.123640
vt 0.857646 0.123640
vt 0.620489 0.626360
vt 0.875000 0.123640
vt 0.563948 0.750000
vt 0.558866 0.000000
vt 0.558866 0.123640
vt 0.558866 0.183396
vt 0.558866 0.240149
vt 0.558866 0.250000
vt 0.558866 0.250000
vt 0.560537 0.265673
vt 0.560537 0.265673
vt 0.560537 0.482646
vt 0.560537 0.482646
vt 0.563948 0.500000
vt 0.563948 0.500000
vt 0.563948 0.509851
vt 0.563948 0.566604
vt 0.563948 0.626360
vt 0.457101 0.750000
vt 0.450941 0.000000
vt 0.450941 0.123640
vt 0.450941 0.183396
vt 0.450941 0.240149
vt 0.450941 0.250000
vt 0.450941 0.250000
vt 0.455770 0.265673
vt 0.455770 0.265673
vt 0.455770 0.482646
vt 0.455770 0.482646
vt 0.457101 0.500000
vt 0.457101 0.500000
vt 0.457101 0.509851
vt 0.457101 0.566604
vt 0.457101 0.626360
vt 0.563948 0.626360
vt 0.457101 0.626360
vt 0.457101 0.566604
vt 0.563948 0.566604
vt 0.388700 0.482646
vt 0.388700 0.482646
vn -0.968035 0.226017 0.108738
vn 0.669581 0.174165 0.722030
vn 0.035550 0.404009 -0.914064
vn -0.995305 -0.035078 -0.090208
vn -0.241997 0.178418 -0.953732
vn -0.199572 0.049551 -0.978629
vn -0.998101 0.014596 -0.059853
vn 0.998591 0.014189 -0.051138
vn 0.238360 0.049627 -0.969908
vn 0.281359 0.178602 -0.942835
vn 0.995543 -0.034495 -0.087769
vn 0.996307 0.072429 -0.046104
vn 0.256911 0.131659 -0.957425
vn -0.215662 0.130062 -0.967767
vn -0.995856 0.073254 -0.053902
vn -0.995705 0.067900 0.062932
vn -0.998630 0.001010 0.052314
vn -0.995829 -0.056014 0.072029
vn -0.990680 0.098181 0.094414
vn 0.097950 0.990147 -0.100073
vn 0.132740 0.985456 0.106098
vn -0.992043 0.109161 -0.062724
vn 0.999009 0.001273 0.044497
vn 0.996136 -0.054441 0.068918
vn 0.996229 0.067882 0.054036
vn -0.186556 0.026002 0.982100
vn -0.190949 -0.034228 0.981003
vn -0.253484 -0.259803 0.931798
vn -0.047725 0.021573 0.998628
vn 0.727322 0.409424 -0.550795
vn -0.978012 0.190232 0.085467
vn 0.000000 0.016742 0.999860
vn 0.000000 -0.030546 0.999533
vn 0.000000 -0.278038 0.960570
vn -0.212658 -0.122537 0.969413
vn 0.000000 -0.102784 0.994704
vn 0.000000 1.000000 0.000000
vn 0.910493 0.256716 0.324191
vn 0.924452 0.292906 -0.244120
vn -0.000000 0.806491 -0.591246
vn 0.000000 0.670864 0.741580
vn -0.247233 0.312639 -0.917133
vn 0.000000 1.000000 0.000000
vn 0.000000 0.343003 -0.939334
vn 0.000000 0.182983 -0.983116
vn 0.000000 0.048122 -0.998841
vn 0.000000 0.087425 -0.996171
vn 0.228828 -0.034120 0.972869
vn 0.222257 0.028230 0.974579
vn 0.294616 -0.252585 0.921630
vn -0.704525 0.423373 -0.569562
vn 0.048443 0.032329 0.998303
vn 0.976687 0.195475 0.088726
vn -0.131808 0.984875 0.112468
vn -0.097212 0.989600 -0.106026
vn 0.989868 0.107110 0.093220
vn 0.991309 0.115793 -0.062439
vn -0.036101 0.411316 -0.910778
vn -0.645194 0.179155 0.742717
vn 0.966652 0.230339 0.111928
vn 0.958826 -0.123768 0.255608
vn 0.943042 0.008026 -0.332578
vn -0.000000 0.173201 -0.984886
vn 0.000000 -0.272741 0.962087
vn 0.239835 -0.123245 0.962959
vn -0.941940 0.194196 0.273929
vn -0.952975 0.222683 -0.205550
vn -0.959024 -0.019379 -0.282663
vn -0.967676 -0.130833 0.215608
vn 0.276571 0.309328 -0.909849
vn -0.191186 0.200689 -0.960818
vn -0.976175 0.209425 -0.056781
vn -0.976540 0.209651 0.049166
vn -0.180958 0.257129 0.949283
vn 0.000000 0.223506 0.974703
vn 0.217172 0.262453 0.940189
vn 0.977205 0.208173 0.041646
vn 0.976868 0.208306 -0.048346
vn 0.228737 0.206662 -0.951299
vn 0.000000 0.169606 -0.985512
vn -0.231538 0.212488 -0.949336
vn -0.968218 0.242815 -0.059957
vn -0.964848 0.253434 0.069569
vn -0.193446 0.331093 0.923556
vn 0.000000 0.298984 0.954258
vn 0.227515 0.336272 0.913870
vn 0.966045 0.251175 0.060560
vn 0.968908 0.241890 -0.052017
vn 0.272545 0.220190 -0.936609
vn 0.000000 0.168761 -0.985657
vn 0.000000 0.224228 0.974537
vn 0.000000 0.298984 0.954258
vn 0.000000 0.016556 0.999863
vn 0.000000 -0.030914 0.999522
vn 0.000000 -0.277997 0.960582
vn 0.000000 -0.103527 0.994627
vn 0.000000 1.000000 0.000000
vn -0.000000 0.807902 -0.589317
vn -0.000000 0.173201 -0.984886
vn 0.000000 0.673583 0.739112
vn 0.000000 -0.272741 0.962087
vn 0.000000 0.342410 -0.939551
vn 0.000000 1.000000 0.000000
vn 0.000000 0.183046 -0.983104
vn 0.000000 0.048132 -0.998841
vn 0.000000 0.083993 -0.996466
vn 0.000000 0.169516 -0.985527
vn 0.000000 0.168761 -0.985657
vn 0.000000 0.180033 -0.983661
vn 0.000000 0.180033 -0.983661
vn 0.000000 0.180033 -0.983661
vn 0.000000 0.180033 -0.983661
vn 0.000000 0.695094 -0.718919
vn 0.000000 0.695094 -0.718919
vn 0.000000 0.695094 -0.718919
vn 0.000000 0.695094 -0.718919
vn 0.859080 0.070791 -0.506922
vn 0.859080 0.070791 -0.506922
vn 0.859080 0.070791 -0.506922
vn 0.859080 0.070791 -0.506923
vn 0.000000 -0.459464 -0.888197
vn 0.000000 -0.459464 -0.888197
vn 0.000000 -0.459464 -0.888197
vn 0.000000 -0.459464 -0.888197
vn -0.862894 0.063406 -0.501391
vn -0.862894 0.063406 -0.501391
vn -0.862894 0.063406 -0.501391
vn -0.862894 0.063406 -0.501391
s 1
g RectangleSand
usemtl initialShadingGroup
f 41/49/1 42/50/2 43/51/3
f 5/5/4 22/30/5 23/31/6 9/14/7
f 14/21/8 12/18/9 6/10/10 13/20/11
f 59/68/12 60/70/13 12/18/9 14/21/8
f 9/14/7 23/31/6 53/61/14 54/63/15
f 54/62/15 55/64/16 17/24/17 9/13/7
f 5/12/4 9/13/7 17/24/17 18/25/18
f 32/41/19 33/39/20 30/40/21 29/38/22
f 11/16/23 14/21/8 13/20/11 4/4/24
f 58/67/25 59/68/12 14/21/8 11/16/23
f 55/64/16 56/65/26 10/15/27 17/24/17
f 18/25/18 17/24/17 10/15/27 3/3/28
f 44/52/29 45/53/30 46/54/31
f 10/15/27 56/65/26 88/100/32 89/101/33
f 3/3/28 10/15/27 89/101/33 90/102/34
f 33/39/20 34/42/35 91/103/36 92/104/37
s 6
f 21/29/38 20/28/39 93/105/40 94/106/41
s 1
f 31/37/42 30/40/21 95/107/43 96/108/44
f 23/31/6 22/30/5 97/109/45 98/110/46
f 99/111/47 53/61/14 23/31/6 98/110/46
f 25/33/48 57/66/49 58/67/25 11/16/23
f 26/34/50 25/33/48 11/16/23 4/4/24
f 48/55/51 47/56/52 49/57/53
f 37/45/54 36/44/55 39/47/56 40/48/57
f 51/58/58 50/59/59 52/60/60
f 22/30/5 5/5/4 29/38/22 31/37/42
s 6
f 20/28/39 21/29/38 30/40/61 33/39/62
s 1
f 5/5/4 18/26/18 32/41/19 29/38/22
f 18/26/18 3/3/28 34/42/35 32/41/19
f 3/3/28 90/102/34 91/103/36 34/42/35
s 6
f 93/105/40 20/28/39 33/39/62 92/104/63
f 21/29/38 94/106/41 95/107/64 30/40/61
s 1
f 97/109/45 22/30/5 31/37/42 96/108/44
f 26/34/50 4/4/24 39/47/56 35/43/65
s 6
f 28/36/66 27/35/67 36/44/68 37/45/69
s 1
f 4/4/24 13/19/11 40/48/57 39/47/56
f 13/19/11 6/6/10 38/46/70 40/48/57
f 29/38/22 30/117/21 42/50/2 41/49/1
f 30/118/21 31/37/42 43/51/3 42/50/2
f 31/37/42 29/38/22 41/49/1 43/51/3
f 34/42/35 33/39/20 45/53/30 44/52/29
f 33/39/20 32/41/19 46/54/31 45/53/30
f 32/41/19 34/42/35 44/52/29 46/54/31
f 36/44/55 35/43/65 47/56/52 48/55/51
f 35/43/65 39/47/56 49/57/53 47/56/52
f 39/47/56 36/44/55 48/55/51 49/57/53
f 38/46/70 37/45/54 50/59/59 51/58/58
f 37/45/54 40/48/57 52/60/60 50/59/59
f 40/48/57 38/46/70 51/58/58 52/60/60
f 54/63/15 53/61/14 61/71/71 62/73/72
f 62/72/72 63/74/73 55/64/16 54/62/15
f 63/74/73 64/75/74 56/65/26 55/64/16
f 88/100/32 56/65/26 64/75/74 87/99/75
f 58/67/25 57/66/49 65/76/76 66/77/77
f 66/77/77 67/78/78 59/68/12 58/67/25
f 67/78/78 68/80/79 60/70/13 59/68/12
f 100/112/80 61/71/71 53/61/14 99/111/47
f 62/73/72 61/71/71 19/27/81 7/7/82
f 7/11/82 16/23/83 63/74/73 62/72/72
f 16/23/83 1/1/84 64/75/74 63/74/73
f 87/99/75 64/75/74 1/1/84 86/98/85
f 66/77/77 65/76/76 24/32/86 2/2/87
f 2/2/87 15/22/88 67/78/78 66/77/77
f 15/22/88 8/9/89 68/80/79 67/78/78
f 19/27/81 61/71/71 100/112/80 85/97/90
f 65/76/76 71/83/91 70/82/92 24/32/86
f 57/66/49 72/84/93 71/83/91 65/76/76
f 73/85/94 72/84/93 57/66/49 25/33/48
f 74/86/95 73/85/94 25/33/48 26/34/50
f 75/87/96 74/86/95 26/34/50 35/43/65
f 76/88/97 75/87/96 35/43/65 36/44/55
s 6
f 27/35/67 77/89/98 76/88/99 36/44/68
f 78/90/100 77/89/98 27/35/67 28/36/66
f 79/91/101 78/90/100 28/36/66 37/45/69
s 1
f 80/92/102 79/91/103 37/45/54 38/46/70
f 6/6/10 81/93/104 80/92/102 38/46/70
f 82/94/105 81/93/104 6/6/10 12/17/9
f 60/69/13 83/95/106 82/94/105 12/17/9
f 68/79/79 84/96/107 83/95/106 60/69/13
f 69/81/108 84/96/107 68/79/79 8/8/89
f 71/83/91 87/99/75 86/98/85 70/82/92
f 72/84/93 88/100/32 87/99/75 71/83/91
f 89/101/33 88/100/32 72/84/93 73/85/94
f 90/102/34 89/101/33 73/85/94 74/86/95
f 91/103/36 90/102/34 74/86/95 75/87/96
f 92/104/37 91/103/36 75/87/96 76/88/97
s 6
f 77/89/98 93/105/40 92/104/63 76/88/99
f 94/106/41 93/105/40 77/89/98 78/90/100
f 95/107/64 94/106/41 78/90/100 79/91/101
s 1
f 96/108/44 95/107/43 79/91/103 80/92/102
f 81/93/104 97/109/45 96/108/44 80/92/102
f 98/110/46 97/109/45 81/93/104 82/94/105
f 83/95/106 99/111/47 98/110/46 82/94/105
s off
f 101/113/109 102/114/110 103/115/111 104/116/112
s 1
f 85/97/90 100/112/80 84/96/107 69/81/108
s off
f 84/96/113 100/112/114 102/114/115 101/113/116
f 100/112/117 99/111/118 103/115/119 102/114/120
f 99/111/121 83/95/122 104/116/123 103/115/124
f 83/95/125 84/96/126 101/113/127 104/116/128
