# This file uses centimeters as units for non-parametric coordinates.

mtllib starFish.mtl
g default
v -0.829097 -0.459775 -1.041978
v 0.000000 -0.488296 -2.482529
v 0.000000 -0.459775 1.700207
v -1.650955 -0.488296 2.482529
v -1.405626 -0.459775 0.808655
v -2.293744 -0.488296 -0.721070
v 0.000000 -0.114957 -2.312288
v 0.001009 0.488296 0.159405
v 0.003170 0.035120 1.411184
v -1.142723 0.035120 0.736483
v -1.545922 0.003732 2.367527
v -2.155241 0.003732 -0.651613
v -0.678792 0.028815 -0.792999
v 0.829098 -0.459775 -1.041978
v 1.650956 -0.488296 2.482529
v 1.405626 -0.459775 0.808655
v 2.293745 -0.488296 -0.721070
v 1.145527 0.035120 0.732129
v 1.553055 0.003732 2.360517
v 2.154419 0.003732 -0.654401
v 0.678427 0.028815 -0.794238
v -1.220306 0.283676 -0.144386
v -0.740804 0.271889 1.395139
v 0.780743 0.283301 1.355886
v -0.321742 -0.474036 -1.893833
v -1.011039 -0.474036 2.124628
v -1.548626 -0.474036 1.858546
v -1.923529 -0.474036 -0.111168
v -1.707683 -0.474036 -0.841198
v 0.000000 -0.300480 -2.482529
v 0.000000 0.065978 -1.801566
v 0.000000 -0.217796 1.700207
v -1.405626 -0.217796 0.808655
v -1.650955 -0.217796 2.482529
v -1.479313 -0.009268 1.826726
v -0.986525 -0.009268 2.070634
v -2.293745 -0.217796 -0.721070
v -0.829097 -0.231577 -1.041978
v -1.653688 -0.009268 -0.779704
v -1.851546 -0.009268 -0.110509
v -0.294930 -0.090439 -1.816510
v 0.321742 -0.474036 -1.893833
v 1.011039 -0.474036 2.124628
v 1.548627 -0.474036 1.858546
v 1.923529 -0.474036 -0.111168
v 1.707683 -0.474036 -0.841198
v 1.405626 -0.217796 0.808655
v 1.650955 -0.217796 2.482529
v 1.485019 -0.009268 1.821118
v 0.992231 -0.009268 2.065026
v 2.293745 -0.217796 -0.721070
v 0.829098 -0.231577 -1.041978
v 1.653029 -0.009268 -0.781934
v 1.850887 -0.009268 -0.112739
v 0.294931 -0.090439 -1.816510
v -1.739731 0.127317 -0.443243
v 1.736434 0.127317 -0.454395
v -1.230826 0.127317 2.022521
v 1.259355 0.127317 1.994484
v -0.321741 -0.272919 -1.893833
v -1.011039 -0.217796 2.124628
v -1.548626 -0.217796 1.858546
v -1.923529 -0.217796 -0.111168
v -1.707683 -0.217796 -0.841198
v -0.912983 0.103838 1.908651
v 1.548627 -0.217796 1.858546
v 1.011039 -0.217796 2.124628
v 1.707683 -0.217796 -0.841198
v 1.923529 -0.217796 -0.111168
v 0.321742 -0.272919 -1.893833
v -1.271374 0.103838 1.731264
vt 0.599722 0.265990
vt 0.979497 0.303989
vt 0.270095 0.555394
vt 0.079807 0.386026
vt 0.312954 0.298295
vt 0.339574 0.080089
vt 0.979497 0.303989
vt 0.476656 0.474810
vt 0.378023 0.279738
vt 0.106749 0.391940
vt 0.275029 0.521607
vt 0.518763 0.263531
vt 0.355573 0.106692
vt 0.599722 0.265990
vt 0.979497 0.303989
vt 0.979497 0.303989
vt 0.270095 0.555394
vt 0.079807 0.386026
vt 0.312954 0.298295
vt 0.339574 0.080089
vt 0.237634 0.484489
vt 0.299890 0.332618
vt 0.107271 0.390780
vt 0.553965 0.271584
vt 0.355907 0.106642
vt 0.438537 0.426005
vt 0.453750 0.306928
vt 0.324391 0.456694
vt 0.298860 0.434365
vt 0.783484 0.303989
vt 0.135047 0.460704
vt 0.184181 0.351369
vt 0.330911 0.168362
vt 0.440465 0.151994
vt 0.197528 0.453403
vt 0.184181 0.351369
vt 0.135047 0.460704
vt 0.440465 0.151994
vt 0.330911 0.168362
vt 0.783484 0.303989
vt 0.230284 0.380514
vt 0.979497 0.303989
vt 0.783484 0.303989
vt 0.599722 0.265990
vt 0.769029 0.312387
vt 0.135047 0.460704
vt 0.270095 0.555394
vt 0.150668 0.458879
vt 0.079807 0.386026
vt 0.184181 0.351369
vt 0.195707 0.358655
vt 0.312954 0.298295
vt 0.330911 0.168362
vt 0.343664 0.180953
vt 0.339574 0.080089
vt 0.440465 0.151994
vt 0.444088 0.165950
vt 0.187576 0.409683
vt 0.403570 0.186500
vt 0.794760 0.354376
vt 0.189661 0.405044
vt 0.196124 0.357728
vt 0.404908 0.186300
vt 0.444356 0.165910
vt 0.769029 0.312387
vt 0.794760 0.354376
vt 0.312954 0.298295
vt 0.079807 0.386026
vt 0.184181 0.351369
vt 0.151085 0.457951
vt 0.270095 0.555394
vt 0.135047 0.460704
vt 0.599722 0.265990
vt 0.339574 0.080089
vt 0.440465 0.151994
vt 0.343931 0.180913
vt 0.330911 0.168362
vt 0.783484 0.303989
vt 0.979497 0.303989
vn 0.000000 0.259108 -0.965848
vn 0.000000 0.000005 -1.000000
vn -0.866368 0.000002 -0.499407
vn -0.837689 0.263673 -0.478281
vn -0.583902 0.000000 -0.811824
vn -0.534188 0.396121 -0.746814
vn -0.279557 0.889491 -0.361461
vn -0.594848 0.724371 -0.348487
vn -0.000099 0.812073 -0.583556
vn 0.430093 0.000000 0.902785
vn 0.000000 0.000000 1.000000
vn 0.001839 0.353228 0.935535
vn 0.440047 0.201008 0.875188
vn 0.000468 0.871375 0.490618
vn 0.399873 0.531281 0.746888
vn -0.334227 0.665546 0.667338
vn -0.455568 0.201428 0.867113
vn -0.441785 0.000000 0.897121
vn -0.989356 0.000000 -0.145513
vn -0.958010 0.239367 -0.157863
vn -0.755050 0.640445 -0.140462
vn -0.480265 0.870811 0.105044
vn -0.920879 0.351188 0.169262
vn -0.982363 0.000000 0.186982
vn -0.864509 -0.000001 0.502618
vn -0.829795 0.240866 0.503413
vn -0.564401 0.737792 0.370290
vn -0.568428 0.803520 -0.176761
vn -0.934984 0.210774 -0.285270
vn -0.959449 -0.000002 -0.281882
vn -0.213446 -0.000000 -0.976955
vn -0.182948 0.263540 -0.947142
vn -0.093164 0.771149 -0.629801
vn -0.070146 0.988008 0.137546
vn -0.115610 0.974163 0.194010
vn 0.283964 0.851285 0.441224
vn -0.227308 0.970760 -0.077174
vn -0.202629 0.978569 -0.036661
vn 0.023559 0.999391 -0.025754
vn -0.000291 0.963596 -0.267362
vn 0.113561 0.973058 0.200655
vn 0.301257 0.774895 0.555682
vn 0.688822 0.711547 -0.138655
vn 0.450027 0.886966 0.103767
vn 0.081381 0.985839 0.146626
vn 0.248097 0.895018 -0.370662
vn 0.210455 0.976282 -0.050816
vn 0.569853 0.802930 -0.174844
vn 0.093662 0.764267 -0.638062
vn 0.594940 0.724225 -0.348633
vn 0.923053 0.346326 0.167426
vn 0.961058 0.226152 -0.158817
vn 0.445008 0.203350 0.872133
vn 0.441786 -0.000003 0.897120
vn 0.989356 -0.000002 -0.145513
vn 0.982363 -0.000002 0.186982
vn -0.365220 0.649334 0.667069
vn -0.437922 0.215372 0.872834
vn -0.430093 -0.000001 0.902785
vn 0.534231 0.394290 -0.747751
vn 0.183026 0.259475 -0.948248
vn 0.935858 0.210705 -0.282443
vn 0.959449 0.000000 -0.281881
vn 0.213446 0.000000 -0.976955
vn 0.583903 0.000000 -0.811824
vn 0.559075 0.744071 0.365777
vn 0.829266 0.243853 0.502845
vn 0.864509 0.000000 0.502618
vn 0.837720 0.263493 -0.478327
vn 0.866368 0.000001 -0.499407
vn -0.392173 0.915217 -0.092620
s 1
g polySurface3
usemtl initialShadingGroup
f 30/42/1 2/2/2 25/43/3 60/30/4
f 25/43/3 1/1/5 38/44/6 60/30/4
f 38/44/6 13/12/7 41/45/8 60/30/4
f 41/45/8 7/7/9 30/42/1 60/30/4
f 26/46/10 3/3/11 32/47/12 61/31/13
f 32/47/12 9/11/14 36/48/15 61/31/13
f 36/48/15 11/10/16 34/49/17 61/31/13
f 34/49/17 4/4/18 26/46/10 61/31/13
f 27/50/19 4/4/18 34/49/17 62/32/20
f 34/49/17 11/10/16 35/51/21 62/32/20
f 35/51/21 10/9/22 33/52/23 62/32/20
f 33/52/23 5/5/24 27/50/19 62/32/20
f 28/53/25 5/5/24 33/52/23 63/33/26
f 33/52/23 10/9/22 40/54/27 63/33/26
f 40/54/27 12/13/28 37/55/29 63/33/26
f 37/55/29 6/6/30 28/53/25 63/33/26
f 29/56/31 6/6/30 37/55/29 64/34/32
f 37/55/29 12/13/28 39/57/33 64/34/32
f 39/57/33 13/12/7 38/44/6 64/34/32
f 38/44/6 1/1/5 29/56/31 64/34/32
f 9/11/14 23/28/34 58/58/35 65/35/36
f 58/58/35 11/10/16 36/48/15 65/35/36
f 36/48/15 9/11/14 65/35/36
f 56/59/37 12/13/28 40/54/27 10/9/22
f 10/9/22 22/27/38 56/59/37
f 22/27/38 10/9/22 8/8/39
f 8/8/39 23/28/34 9/11/14
f 13/12/7 8/8/39 31/60/40
f 31/60/40 7/7/9 41/45/8 13/12/7
f 59/61/41 19/23/42 49/62/43 18/22/44
f 18/22/44 24/29/45 59/61/41
f 21/24/46 8/26/39 57/63/47
f 57/63/47 20/25/48 53/64/49 21/24/46
f 24/29/45 18/22/44 8/26/39
f 55/65/50 7/15/9 31/66/40 21/24/46
f 31/66/40 8/26/39 21/24/46
f 47/67/51 18/22/44 49/62/43 66/36/52
f 49/62/43 19/23/42 48/68/53 66/36/52
f 48/68/53 15/18/54 44/69/55 66/36/52
f 44/69/55 16/19/56 47/67/51 66/36/52
f 48/68/53 19/23/42 50/70/57 67/37/58
f 50/70/57 9/21/14 32/71/12 67/37/58
f 32/71/12 3/17/11 43/72/59 67/37/58
f 43/72/59 15/18/54 48/68/53 67/37/58
f 52/73/60 21/24/46 53/64/49 68/38/61
f 53/64/49 20/25/48 51/74/62 68/38/61
f 51/74/62 17/20/63 46/75/64 68/38/61
f 46/75/64 14/14/65 52/73/60 68/38/61
f 51/74/62 20/25/48 54/76/66 69/39/67
f 54/76/66 18/22/44 47/67/51 69/39/67
f 47/67/51 16/19/56 45/77/68 69/39/67
f 45/77/68 17/20/63 51/74/62 69/39/67
f 55/65/50 21/24/46 52/73/60 70/40/69
f 52/73/60 14/14/65 42/78/70 70/40/69
f 42/78/70 2/16/2 30/79/1 70/40/69
f 30/79/1 7/15/9 55/65/50 70/40/69
f 13/12/7 22/27/38 8/8/39
f 39/57/33 12/13/28 56/59/37 13/12/7
f 56/59/37 22/27/38 13/12/7
f 57/63/47 8/26/39 18/22/44
f 54/76/66 20/25/48 57/63/47 18/22/44
f 23/28/34 8/8/39 10/9/22
f 58/58/35 23/28/34 10/9/22 71/41/71
f 10/9/22 35/51/21 71/41/71
f 35/51/21 11/10/16 58/58/35 71/41/71
f 8/26/39 9/21/14 24/29/45
f 50/70/57 19/23/42 59/61/41 9/21/14
f 59/61/41 24/29/45 9/21/14
